<?xml version="1.0" standalone="no"?>
<!DOCTYPE svg PUBLIC "-//W3C//DTD SVG 20010904//EN"
 "http://www.w3.org/TR/2001/REC-SVG-20010904/DTD/svg10.dtd">
<svg version="1.0" xmlns="http://www.w3.org/2000/svg"
 width="473.000000pt" height="473.000000pt" viewBox="0 0 473.000000 473.000000"
 preserveAspectRatio="xMidYMid meet">
<metadata>
Created by potrace 1.14, written by Peter Selinger 2001-2017
</metadata>
<g transform="translate(0.000000,473.000000) scale(0.100000,-0.100000)"
fill="#000000" stroke="none">
<path d="M2310 4643 c-260 -8 -587 -43 -740 -79 -151 -37 -444 -157 -456 -188
-3 -9 5 -35 19 -58 51 -86 41 -84 138 -33 397 206 964 293 1438 219 223 -34
561 -139 743 -230 120 -60 297 -162 337 -195 22 -18 23 -21 8 -52 -8 -17 -17
-54 -20 -82 -3 -27 -14 -93 -26 -145 -18 -85 -29 -127 -59 -225 l-9 -30 -5 27
c-3 17 -1 25 5 21 6 -4 7 4 3 21 -4 15 -3 25 2 22 5 -3 9 1 9 8 0 7 -6 13 -14
13 -7 0 -11 -2 -8 -5 2 -2 -2 -17 -10 -32 -8 -15 -11 -31 -7 -36 4 -5 -1 -2
-10 5 -11 8 -16 22 -14 36 2 12 1 28 -4 35 -13 21 -51 -98 -53 -165 -1 -49 4
-73 31 -129 75 -160 178 -260 322 -313 66 -24 90 -45 96 -81 1 -6 -2 -10 -7
-6 -5 3 -10 -3 -10 -13 -3 -46 -6 -59 -13 -75 -4 -9 -4 -23 0 -29 5 -9 2 -10
-10 -6 -12 5 -15 3 -9 -6 12 -19 12 -38 0 -30 -6 4 -8 0 -4 -10 3 -10 2 -17
-4 -17 -6 0 -8 -4 -5 -9 3 -5 -1 -12 -10 -15 -12 -5 -13 -10 -5 -19 8 -10 7
-19 -4 -34 -8 -11 -11 -24 -7 -28 4 -5 2 -5 -4 -2 -7 4 -15 0 -18 -9 -4 -10
-2 -13 7 -9 6 4 4 0 -6 -8 -10 -9 -18 -18 -18 -21 3 -20 0 -26 -9 -21 -6 4 -6
-3 0 -21 10 -24 9 -26 -5 -14 -9 7 -15 9 -14 4 4 -20 -23 -74 -34 -67 -8 4 -8
1 0 -9 11 -12 10 -18 -5 -32 -10 -9 -22 -14 -25 -11 -4 3 -5 2 -2 -2 3 -3 -1
-13 -8 -21 -10 -13 -9 -14 3 -7 9 5 7 -1 -5 -15 -28 -34 -31 -38 -78 -110 -23
-36 -51 -82 -62 -102 l-19 -37 -79 157 -80 157 21 60 c18 50 22 82 22 190 -1
217 -18 470 -35 512 -9 20 -46 77 -84 127 -37 50 -113 159 -168 241 -63 94
-123 171 -160 205 -108 100 -344 224 -575 302 l-126 42 -71 -17 c-231 -55
-637 -258 -707 -354 -11 -15 -64 -91 -116 -168 -52 -77 -136 -199 -185 -272
l-90 -132 -7 -188 c-11 -331 -9 -411 12 -476 15 -45 18 -67 10 -93 -5 -19 -12
-34 -17 -34 -4 0 -17 -18 -30 -40 -12 -22 -25 -40 -27 -40 -3 0 -2 4 1 10 3 6
-1 7 -9 4 -9 -3 -13 -11 -9 -17 4 -6 1 -7 -6 -3 -7 5 -10 14 -7 22 3 8 0 11
-10 7 -7 -3 -14 -1 -14 5 0 5 -11 8 -25 7 -14 -2 -25 2 -25 8 0 8 -4 7 -12 -1
-16 -16 -31 -15 -25 1 3 8 -1 14 -9 14 -7 0 -10 -5 -7 -10 4 -6 1 -7 -6 -3 -7
5 -10 15 -6 23 4 13 3 14 -10 3 -12 -10 -16 -8 -25 15 -5 14 -14 24 -19 20 -5
-3 -12 -1 -16 5 -4 6 -11 8 -16 5 -5 -3 -6 2 -2 11 4 11 3 15 -4 11 -7 -4 -10
0 -8 10 1 10 -6 33 -16 51 -10 18 -19 36 -19 40 0 11 41 -56 44 -70 1 -7 7
-22 14 -33 12 -20 12 -20 9 0 -1 12 -13 39 -26 60 -13 22 -24 45 -24 52 0 7
-4 10 -8 8 -3 -3 -13 3 -20 12 -12 14 -12 16 1 9 8 -4 7 -1 -3 7 -14 11 -15
16 -5 20 8 3 5 6 -7 6 -17 1 -17 3 -5 11 10 6 11 10 3 10 -7 0 -13 7 -13 16 0
9 -5 12 -12 8 -9 -5 -9 -3 1 9 11 14 11 18 -1 22 -15 6 -17 12 -20 59 -1 14
-5 23 -9 20 -4 -2 -6 14 -5 36 2 21 -1 37 -6 34 -4 -3 -8 2 -8 11 0 9 -4 13
-10 10 -6 -3 -7 1 -4 9 4 9 -1 18 -10 22 -9 3 -14 10 -11 14 3 5 -1 15 -9 23
-8 8 -12 17 -9 21 4 3 1 6 -5 6 -7 0 -11 6 -10 12 2 7 -8 14 -21 16 -13 2 -21
0 -18 -5 3 -5 -7 -7 -23 -5 -25 4 -310 -25 -317 -32 -9 -8 -3 -367 6 -446 18
-150 53 -331 87 -452 4 -14 -1 -18 -23 -18 -16 0 -34 -5 -41 -12 -19 -19 -27
-1 -55 112 -70 285 -95 463 -104 732 l-6 186 69 6 c162 15 317 39 429 66 144
36 190 64 310 193 l83 89 -24 71 c-38 110 -102 343 -119 431 -10 56 -20 83
-35 93 -25 18 -25 51 0 127 11 33 20 61 20 63 0 2 -29 -20 -65 -49 l-65 -53 6
-60 c10 -113 55 -307 101 -437 l45 -130 -26 -27 c-14 -15 -26 -35 -26 -44 0
-27 -79 -106 -131 -132 -68 -35 -156 -52 -355 -70 -99 -9 -213 -19 -254 -23
l-75 -7 1 -275 c1 -245 4 -293 27 -437 48 -300 102 -509 131 -507 9 1 16 -4
16 -12 0 -8 6 -14 13 -14 18 1 44 24 40 36 -2 6 19 21 48 33 43 19 56 21 80
11 24 -10 27 -15 18 -32 -6 -10 -22 -23 -36 -29 -21 -8 -23 -12 -13 -24 7 -8
10 -24 7 -35 -3 -11 -4 -20 -2 -20 4 0 156 59 192 75 31 14 33 13 33 -5 0 -11
-6 -20 -14 -20 -7 0 -24 -9 -38 -19 -13 -11 -55 -32 -92 -47 -37 -14 -65 -29
-63 -33 2 -3 9 -22 17 -41 28 -74 112 -225 185 -333 200 -296 240 -353 254
-361 35 -21 101 -90 101 -105 0 -18 163 -169 300 -277 253 -200 654 -426 935
-528 55 -20 116 -44 137 -52 36 -16 37 -16 180 41 277 111 518 240 779 416
231 157 499 383 615 521 90 106 194 247 194 262 0 7 44 87 98 178 54 91 118
204 142 252 24 47 50 86 58 86 8 0 43 -20 79 -45 36 -26 67 -44 69 -42 2 2 -2
20 -11 40 -17 42 -16 49 48 297 74 284 106 547 107 861 0 217 17 193 -145 204
-134 9 -347 33 -415 46 -30 6 -80 24 -110 39 -54 27 -160 127 -160 151 0 7 -7
21 -17 31 -15 17 -14 25 15 131 74 263 115 495 91 523 -17 21 -103 86 -209
159 -47 32 -86 62 -88 66 -2 5 -14 9 -26 9 -13 0 -35 9 -50 21 -31 24 -213
115 -306 153 -50 21 -74 25 -109 20 -31 -4 -73 1 -126 14 -127 32 -316 61
-438 67 -62 3 -130 7 -152 8 -22 1 -78 1 -125 0z m48 -771 c5 -198 -2 -261
-26 -269 -9 -3 -69 -26 -132 -50 -137 -54 -186 -81 -171 -96 7 -7 16 -6 27 4
12 9 15 10 10 2 -4 -7 -2 -13 3 -13 6 0 11 -5 11 -10 0 -6 -3 -9 -7 -8 -5 1
-28 -7 -53 -18 -25 -12 -110 -43 -190 -69 -176 -58 -239 -85 -308 -132 -39
-28 -51 -41 -46 -55 3 -10 0 -18 -7 -18 -8 0 -8 -4 -2 -12 6 -8 14 -139 18
-303 12 -478 14 -529 20 -559 4 -25 -4 -38 -68 -105 -41 -42 -99 -109 -130
-149 l-56 -72 21 -61 c11 -33 18 -63 15 -65 -3 -3 -23 6 -44 20 -46 32 -48 32
-49 1 -1 -15 2 -22 8 -19 6 4 8 1 6 -7 -3 -8 -2 -21 3 -30 13 -25 20 -74 9
-63 -13 13 -40 105 -34 115 2 4 -1 9 -8 11 -6 2 -12 20 -12 40 -1 20 -4 34 -7
33 -3 -2 -13 17 -22 43 -19 53 -14 85 22 167 38 85 162 305 173 305 6 0 21
-11 34 -26 15 -15 24 -20 24 -11 0 8 -8 22 -19 31 -10 9 -33 49 -51 88 -39 83
-41 117 -27 458 10 239 5 222 135 402 110 152 212 308 212 324 0 23 97 99 191
150 201 110 443 207 499 202 l25 -3 3 -173z m1313 -383 c-9 -22 -10 -22 -10
-3 -1 11 2 24 6 27 12 12 14 0 4 -24z m-51 -80 c0 -6 -4 -7 -10 -4 -5 3 -10
11 -10 16 0 6 5 7 10 4 6 -3 10 -11 10 -16z m-885 -9 c-3 -5 -12 -10 -18 -10
-7 0 -6 4 3 10 19 12 23 12 15 0z m205 -25 c0 -2 -6 -8 -13 -14 -10 -8 -14 -7
-14 2 0 8 6 14 14 14 7 0 13 -1 13 -2z m44 -15 c15 0 62 -48 54 -55 -3 -3 -16
4 -30 15 -14 10 -28 16 -32 13 -3 -3 -6 2 -6 11 0 13 -5 16 -16 12 -15 -6 -15
-4 -3 10 8 10 15 12 17 5 2 -6 9 -11 16 -11z m-642 -112 c-13 -13 -16 -32 -4
-24 4 2 9 -4 9 -15 1 -12 -2 -17 -10 -13 -7 4 -9 4 -5 -1 7 -8 -101 -69 -109
-62 -1 2 13 23 33 46 25 28 42 40 52 36 9 -3 13 -3 10 1 -10 9 10 44 24 44 9
0 9 -3 0 -12z m279 -119 c132 -43 208 -75 271 -112 48 -28 85 -53 83 -56 -3
-2 -11 1 -17 7 -19 19 -34 15 -195 -48 -84 -34 -185 -69 -225 -79 -40 -10 -74
-23 -76 -29 -3 -10 52 -57 106 -88 17 -10 32 -25 32 -33 0 -26 62 -81 91 -81
34 0 69 41 69 81 0 52 8 59 69 59 33 -1 64 -7 75 -15 11 -8 32 -15 47 -15 34
0 84 18 75 27 -3 3 -1 12 6 20 6 7 8 16 4 20 -3 3 -6 1 -6 -6 0 -7 -5 -9 -12
-5 -7 4 -8 3 -4 -4 12 -20 0 -13 -20 10 -13 15 -13 18 -3 10 14 -10 17 -9 22
8 3 11 1 18 -3 15 -5 -3 -16 2 -24 11 -15 14 -16 14 -17 -3 -1 -13 -3 -11 -9
7 -4 14 -8 20 -9 13 -1 -6 -10 -9 -21 -6 -12 3 -20 0 -20 -8 0 -7 -3 -10 -6
-6 -3 3 1 16 10 29 11 15 16 17 16 8 1 -12 3 -12 14 2 9 12 16 14 23 7 7 -7
17 -8 29 -1 11 5 25 7 32 5 7 -3 19 -2 28 1 12 5 13 10 4 26 -8 15 -8 25 -1
34 6 7 9 16 6 20 -3 3 3 -1 13 -9 15 -14 17 -41 17 -263 l0 -247 -71 -140
c-39 -77 -94 -192 -123 -255 -28 -63 -61 -126 -72 -140 l-20 -25 6 25 c6 24 5
24 -9 6 -9 -11 -16 -23 -16 -28 0 -4 -4 -8 -9 -8 -5 0 -12 21 -16 47 -16 111
-84 168 -234 198 -21 5 -35 14 -38 26 -5 18 -14 19 -117 15 -107 -4 -111 -5
-120 -29 -8 -22 -17 -26 -75 -32 -80 -9 -161 -38 -188 -68 -30 -33 -44 -82
-50 -184 l-6 -91 -25 51 c-13 29 -52 108 -86 177 -34 69 -75 159 -91 200 -16
41 -47 105 -67 142 -37 66 -38 71 -49 215 -10 148 -5 273 12 273 5 0 14 11 19
25 5 14 16 26 25 26 50 4 75 3 75 -3 0 -5 7 -8 15 -8 8 0 15 -9 15 -19 0 -11
5 -23 10 -26 6 -3 10 -15 10 -25 0 -13 5 -18 16 -13 12 4 14 0 8 -22 l-7 -28
56 7 56 7 10 -39 c14 -48 52 -86 79 -78 22 7 86 74 94 97 4 11 8 10 22 -4 22
-22 39 -22 58 1 21 24 63 101 57 105 -2 2 -60 19 -128 37 -112 30 -272 87
-288 104 -4 4 6 6 23 5 16 -2 54 6 84 16 65 21 246 110 255 125 3 5 14 10 23
10 9 0 48 20 86 44 53 34 76 43 101 40 17 -2 114 -31 216 -65z m643 28 c14
-11 19 -40 28 -182 10 -175 6 -325 -15 -500 -11 -89 -15 -100 -32 -100 -20 0
-20 9 -23 375 -1 206 0 385 3 398 6 25 14 27 39 9z m-1309 -367 c3 -5 -3 -10
-14 -10 -12 0 -21 5 -21 10 0 6 6 10 14 10 8 0 18 -4 21 -10z m90 -20 c18 -8
18 -9 -5 -8 -14 0 -36 4 -50 8 -24 8 -24 8 5 8 17 0 39 -3 50 -8z m-1508 -99
c37 -23 54 -75 31 -97 -26 -26 -80 -28 -111 -4 -34 27 -35 63 -2 95 29 30 40
31 82 6z m3147 -486 c3 -9 0 -15 -9 -15 -9 0 -12 6 -9 15 4 8 7 15 9 15 2 0 5
-7 9 -15z m-1069 -211 l50 -20 3 -64 c4 -74 -23 -158 -67 -210 -26 -32 -28
-33 -101 -30 -102 3 -132 2 -231 -8 -111 -12 -145 -6 -167 27 -23 32 -59 110
-68 145 -7 29 2 124 15 144 19 31 102 41 311 38 173 -3 213 -6 255 -22z
m-1325 -178 c1 5 8 -4 16 -20 13 -22 13 -31 3 -40 -9 -8 -10 -8 -5 2 4 6 3 12
-3 12 -6 0 -7 8 -4 17 5 12 2 15 -10 10 -10 -4 -16 -2 -14 6 1 7 -3 11 -9 10
-6 -1 -11 5 -11 13 0 11 4 11 19 -3 10 -9 18 -12 18 -7z m1700 -40 c0 -2 -8
-10 -17 -17 -16 -13 -17 -12 -4 4 13 16 21 21 21 13z m-90 -109 c0 -1 -24 -25
-52 -52 l-53 -50 50 53 c46 48 55 57 55 49z m-1036 -97 c14 -5 49 -29 78 -52
96 -78 225 -160 319 -202 102 -47 101 -45 99 -148 -1 -34 5 -69 14 -87 20 -38
21 -38 -9 -45 -26 -7 -115 5 -224 30 -95 22 -213 85 -315 169 -55 44 -166 179
-166 200 0 8 18 26 40 42 22 15 40 33 40 38 0 8 55 44 97 64 1 1 13 -3 27 -9z
m-640 -70 c22 -64 92 -174 144 -228 20 -20 36 -39 37 -42 9 -47 39 -72 260
-225 356 -245 416 -297 328 -280 -76 13 -284 133 -424 242 -74 58 -147 117
-163 131 -16 15 -25 19 -20 10 21 -38 120 -149 204 -227 94 -86 131 -136 107
-144 -15 -5 -78 21 -92 38 -17 20 -202 173 -224 185 -19 9 -21 8 -21 -15 0
-14 -4 -25 -9 -25 -5 0 -7 -8 -4 -19 8 -32 -36 -34 -77 -4 -73 55 -227 193
-283 254 -32 35 -72 78 -88 96 -34 35 -109 140 -109 151 0 15 366 163 395 160
14 -2 25 -18 39 -58z m2393 6 c21 -8 98 -33 171 -56 72 -22 132 -45 132 -49 0
-5 -7 -14 -15 -21 -12 -10 -27 -8 -78 10 -73 27 -166 70 -222 105 -46 28 -42
31 12 11z m-920 -34 c-26 -27 -87 -68 -87 -58 0 5 102 86 109 86 3 0 -7 -12
-22 -28z m344 -2 c39 -21 39 -21 24 -50 -22 -42 -141 -155 -165 -156 -11 -1
-18 1 -14 5 3 3 11 6 17 6 7 0 12 9 12 21 1 11 12 38 25 60 24 39 26 45 29 65
0 5 5 8 9 5 4 -2 6 11 4 30 -5 40 3 42 59 14z m-1641 -20 c8 -5 12 -11 10 -14
-3 -2 -14 2 -24 10 -22 15 -10 19 14 4z m39 -60 c11 -24 11 -24 -3 -6 -9 11
-16 24 -16 30 0 12 5 7 19 -24z m1146 0 c-10 -11 -26 -22 -36 -25 -11 -4 -17
-10 -14 -15 3 -5 1 -11 -5 -15 -6 -4 -8 -11 -5 -16 4 -5 1 -9 -4 -9 -14 0 -14
13 1 28 7 7 8 12 3 12 -13 -1 -46 -26 -41 -31 3 -2 -5 -5 -17 -6 -12 -1 -35
-4 -52 -8 -16 -4 17 18 75 48 122 64 118 63 95 37z m-930 -139 c128 -138 308
-239 519 -292 103 -26 134 -48 143 -103 l6 -39 -79 7 c-43 3 -105 12 -136 21
-116 30 -319 149 -416 244 -54 54 -129 172 -143 225 -4 17 -10 42 -14 56 -5
20 1 17 32 -20 21 -25 61 -69 88 -99z m812 37 c-3 -8 -6 -5 -6 6 -1 11 2 17 5
13 3 -3 4 -12 1 -19z m28 -17 c3 -5 2 -12 -3 -15 -5 -3 -9 1 -9 9 0 17 3 19
12 6z m-87 -11 c-2 -19 3 -30 11 -25 5 3 12 1 16 -4 3 -6 -3 -8 -15 -6 -11 2
-20 -2 -20 -8 -1 -7 -7 -1 -15 13 -19 33 -18 36 4 36 11 0 19 -3 19 -6z m-961
-16 c-3 -3 -12 -4 -19 -1 -8 3 -5 6 6 6 11 1 17 -2 13 -5z m1443 2 c0 -3 -4
-8 -10 -11 -5 -3 -10 -1 -10 4 0 6 5 11 10 11 6 0 10 -2 10 -4z m-40 -30 c0
-2 -8 -10 -17 -17 -16 -13 -17 -12 -4 4 13 16 21 21 21 13z m-433 -21 c0 -8
-4 -12 -9 -9 -5 3 -6 10 -3 15 9 13 12 11 12 -6z m892 -42 c-71 -78 -159 -154
-209 -182 -20 -10 -22 -11 -12 0 6 7 12 20 12 29 0 13 -1 13 -10 0 -7 -11 -10
-12 -10 -2 0 21 74 87 153 136 84 52 112 59 76 19z"/>
<path d="M1411 2974 c0 -11 3 -14 6 -6 3 7 2 16 -1 19 -3 4 -6 -2 -5 -13z"/>
<path d="M1380 2944 c0 -11 -4 -24 -9 -29 -8 -10 2 -78 36 -243 16 -79 23 -85
29 -25 14 152 14 166 -2 199 -9 19 -14 47 -12 64 3 16 2 28 0 25 -3 -3 -14 2
-24 12 -17 15 -18 15 -18 -3z"/>
<path d="M1402 2350 c0 -14 2 -19 5 -12 2 6 2 18 0 25 -3 6 -5 1 -5 -13z"/>
<path d="M1180 1895 c0 -16 16 -20 24 -6 3 5 -1 11 -9 15 -9 3 -15 0 -15 -9z"/>
<path d="M2228 1898 c-26 -7 -38 -16 -38 -28 0 -33 26 -43 94 -36 l63 6 7 -80
c4 -44 12 -82 17 -85 5 -4 9 -2 9 2 0 5 11 9 24 9 13 0 22 -5 20 -10 -3 -7 12
-11 36 -11 42 0 47 4 29 22 -8 8 -7 13 2 18 7 5 10 4 6 -2 -9 -14 12 -30 36
-30 23 0 52 41 41 58 -4 7 -3 9 3 6 13 -8 27 38 18 56 -4 7 1 3 9 -7 9 -11 16
-15 16 -9 0 16 -59 73 -72 70 -7 -1 -14 7 -16 18 -9 42 -20 45 -146 44 -66 -1
-138 -6 -158 -11z m332 -197 c-9 -18 -32 -22 -46 -8 -4 3 3 5 14 2 11 -2 23 3
26 11 3 8 8 14 11 14 3 0 1 -9 -5 -19z"/>
<path d="M2626 1765 c-9 -26 -7 -32 5 -12 6 10 9 21 6 23 -2 3 -7 -2 -11 -11z"/>
<path d="M2603 1725 c0 -8 4 -12 9 -9 5 3 6 10 3 15 -9 13 -12 11 -12 -6z"/>
<path d="M1048 4323 c7 -3 16 -2 19 1 4 3 -2 6 -13 5 -11 0 -14 -3 -6 -6z"/>
<path d="M1116 4225 c-3 -8 -1 -15 4 -15 6 0 10 7 10 15 0 8 -2 15 -4 15 -2 0
-6 -7 -10 -15z"/>
<path d="M3693 3705 c0 -8 4 -12 9 -9 5 3 6 10 3 15 -9 13 -12 11 -12 -6z"/>
<path d="M3639 3676 c4 -6 7 -26 5 -44 -1 -19 0 -31 3 -28 13 13 10 83 -3 83
-8 0 -10 -5 -5 -11z"/>
<path d="M3986 2907 c3 -10 9 -15 12 -12 3 3 0 11 -7 18 -10 9 -11 8 -5 -6z"/>
</g>
</svg>
